<svg width="70" height="57" viewBox="0 0 70 57" fill="none" xmlns="http://www.w3.org/2000/svg">
<rect x="1" y="1" width="68" height="32" stroke="#0BC5AF" stroke-width="2"/>
<rect x="11" y="9" width="48" height="16" stroke="#0BC5AF" stroke-width="2"/>
<path d="M31.846 20.83H27.59L26.806 23H25.462L28.99 13.298H30.46L33.974 23H32.63L31.846 20.83ZM31.482 19.794L29.718 14.866L27.954 19.794H31.482ZM38.5496 13.242C39.6136 13.242 40.5329 13.4427 41.3076 13.844C42.0916 14.236 42.6889 14.8007 43.0996 15.538C43.5196 16.2753 43.7296 17.1433 43.7296 18.142C43.7296 19.1407 43.5196 20.0087 43.0996 20.746C42.6889 21.474 42.0916 22.034 41.3076 22.426C40.5329 22.8087 39.6136 23 38.5496 23H35.5116V13.242H38.5496ZM38.5496 21.95C39.8096 21.95 40.7709 21.6187 41.4336 20.956C42.0963 20.284 42.4276 19.346 42.4276 18.142C42.4276 16.9287 42.0916 15.9813 41.4196 15.3C40.7569 14.6187 39.8003 14.278 38.5496 14.278H36.7856V21.95H38.5496Z" fill="#0BC5AF"/>
<path d="M56.9591 43.5C56.9591 45.414 55.3701 47 53.3672 47C51.3644 47 49.7754 45.414 49.7754 43.5C49.7754 41.586 51.3644 40 53.3672 40C55.3701 40 56.9591 41.586 56.9591 43.5Z" stroke="#0BC5AF" stroke-width="2"/>
<path d="M51.7344 49H54.9997C57.2088 49 58.9997 50.7909 58.9997 53V56H47.7344V53C47.7344 50.7909 49.5252 49 51.7344 49Z" stroke="#0BC5AF" stroke-width="2"/>
<path d="M44.7149 43.5C44.7149 45.414 43.1259 47 41.1231 47C39.1202 47 37.5312 45.414 37.5312 43.5C37.5312 41.586 39.1202 40 41.1231 40C43.1259 40 44.7149 41.586 44.7149 43.5Z" stroke="#0BC5AF" stroke-width="2"/>
<path d="M39.4902 49H42.7555C44.9647 49 46.7555 50.7909 46.7555 53V56H35.4902V53C35.4902 50.7909 37.2811 49 39.4902 49Z" stroke="#0BC5AF" stroke-width="2"/>
<path d="M32.4708 43.5C32.4708 45.414 30.8818 47 28.8789 47C26.8761 47 25.2871 45.414 25.2871 43.5C25.2871 41.586 26.8761 40 28.8789 40C30.8818 40 32.4708 41.586 32.4708 43.5Z" stroke="#0BC5AF" stroke-width="2"/>
<path d="M27.2461 49H30.5114C32.7205 49 34.5114 50.7909 34.5114 53V56H23.2461V53C23.2461 50.7909 25.037 49 27.2461 49Z" stroke="#0BC5AF" stroke-width="2"/>
<path d="M20.2247 43.5C20.2247 45.414 18.6357 47 16.6329 47C14.63 47 13.041 45.414 13.041 43.5C13.041 41.586 14.63 40 16.6329 40C18.6357 40 20.2247 41.586 20.2247 43.5Z" stroke="#0BC5AF" stroke-width="2"/>
<path d="M15 49H18.2653C20.4744 49 22.2653 50.7909 22.2653 53V56H11V53C11 50.7909 12.7909 49 15 49Z" stroke="#0BC5AF" stroke-width="2"/>
</svg>
