<svg width="74" height="72" viewBox="0 0 74 72" fill="none" xmlns="http://www.w3.org/2000/svg">
<path d="M46.5962 18.8899C46.5962 28.7702 38.5866 36.7798 28.7063 36.7798C18.826 36.7798 10.8164 28.7702 10.8164 18.8899C10.8164 9.00958 18.826 1 28.7063 1C38.5866 1 46.5962 9.00958 46.5962 18.8899Z" stroke="#0BC5AF" stroke-width="2"/>
<path d="M2.65234 57.9724C10.9031 42.7736 32.6156 21.4954 53.4597 57.9724H2.65234Z" stroke="#0BC5AF" stroke-width="2"/>
<rect x="8.21094" y="43.9907" width="38.3853" height="20.1468" fill="#E2E6E9" stroke="#0BC5AF" stroke-width="2"/>
<rect x="3" y="63.5322" width="50.1101" height="7.11927" fill="#D9D9D9" stroke="#0BC5AF" stroke-width="2"/>
<path d="M6.5596 42.9908L7.21097 42.3394L7.86235 41.688M5.90822 42.3394L7.86235 40.3853M5.25684 41.688L7.86235 39.0825M4.60547 41.0367L7.86235 37.7798" stroke="#0BC5AF" stroke-width="0.4"/>
<path d="M30.9302 44.9449L43.9573 41.0366L60.8932 24.7522C65.0186 32.1345 71.3155 44.9449 71.3155 44.9449C71.3155 44.9449 55.6822 46.6819 47.8657 48.2017L36.7925 56.6696C30.9307 55.3669 27.0227 51.4586 30.9302 44.9449Z" fill="#D9D9D9"/>
<path d="M43.9573 41.0366L30.9302 44.9449C27.0227 51.4586 30.9307 55.3669 36.7925 56.6696L47.8657 48.2017M43.9573 41.0366L60.8932 24.7522C65.0186 32.1345 71.3155 44.9449 71.3155 44.9449C71.3155 44.9449 55.6822 46.6819 47.8657 48.2017M43.9573 41.0366L47.8657 48.2017" stroke="#0BC5AF"/>
<path d="M64.5312 30.6146C67.1368 29.9633 71.6964 34.5229 68.4395 38.4311" stroke="#0BC5AF"/>
<path d="M67.7891 27.3579L66.4863 29.9634" stroke="#0BC5AF"/>
<line x1="72.5853" y1="31.717" x2="69.9585" y2="32.9763" stroke="#0BC5AF"/>
<path d="M73 37.7823L70.1654 37.1109" stroke="#0BC5AF"/>
</svg>
