<svg width="355" height="74" viewBox="0 0 355 74" fill="none" xmlns="http://www.w3.org/2000/svg">
<rect x="199.338" y="17.1294" width="155.662" height="39.7407" fill="white"/>
<path fill-rule="evenodd" clip-rule="evenodd" d="M12.6406 56.4225H208.834V17H12.6406V56.4225Z" fill="#13110E"/>
<path fill-rule="evenodd" clip-rule="evenodd" d="M120.801 25.9504L121.564 26.4377C121.775 26.5702 121.796 26.6608 121.796 26.7371V33.4704H107.181L103.877 37.7261V26.7665L103.9 26.5534L104.07 26.4377L104.758 25.9965L104.836 25.9588V25.2861H97.5371V25.9504L98.2631 26.4226L98.4159 26.5383H98.4332V46.671L98.4018 46.9403L98.2631 47.0703L97.5371 47.571V48.216H104.836V47.5509L104.07 47.0652L103.9 46.9629L103.877 46.9688V37.7261L104.658 37.9668L105.678 37.3805L106.131 37.1608C106.196 37.1432 106.312 37.1113 106.548 37.1113H121.766V44.1968L127.215 38.2696V26.5383L127.318 26.3672L128.115 25.9638V25.2861H120.801V25.9504Z" fill="#FEFEFE"/>
<path fill-rule="evenodd" clip-rule="evenodd" d="M199.34 34.2565C198.492 31.5071 196.527 29.2535 193.52 27.5475C190.802 26.0068 186.959 25.2578 181.764 25.2578H161.918V25.9162L162.773 26.4798L162.777 26.4765V28.8668H181.73C185.56 28.8668 188.359 29.3826 190.071 30.3941C192.78 31.9995 194.101 34.0904 194.104 36.7601C194.104 38.1045 193.743 39.3341 193.049 40.4236C192.356 41.4946 191.288 42.4223 189.879 43.1494C188.064 44.1173 185.253 44.6055 181.57 44.6055H171.689V30.5091H166.28L166.292 46.6964L166.251 46.9338L166.11 47.0814L165.444 47.5024L165.392 47.5485V48.2095H181.589C184.711 48.2095 187.158 48.0266 188.879 47.671C191.233 47.1736 193.327 46.303 195.08 45.0869C196.884 43.8573 198.181 42.4399 198.91 40.8539C199.473 39.7006 199.746 38.4199 199.746 37.0603C199.746 36.0874 199.613 35.143 199.34 34.2565Z" fill="#FEFEFE"/>
<path fill-rule="evenodd" clip-rule="evenodd" d="M138.248 29.4858L120.643 48.1608H128.751V47.3817H128.475L128.088 47.3414L127.792 47.2567L141.389 32.8852L138.248 29.4858Z" fill="#FEFEFE"/>
<path fill-rule="evenodd" clip-rule="evenodd" d="M156.218 47.4561V48.2395H164.318L142.845 25.2744L139.71 28.5941L143.186 32.3415L146.789 36.0151H140.705L137.383 39.5562L138.094 40.0569L138.888 39.625L139.107 39.5562C139.158 39.5402 139.361 39.5402 139.673 39.5402H150.058L157.226 47.3228C157.226 47.3228 157.111 47.4561 156.493 47.4561H156.218Z" fill="#FEFEFE"/>
<path fill-rule="evenodd" clip-rule="evenodd" d="M94.2405 26.4103L94.897 25.9591V25.2881H87.6621V25.9591L88.3939 26.4237L88.6425 26.7374L88.6507 46.6663L88.5995 46.9196L88.4021 47.0705L87.6621 47.5537V48.2297H94.897V47.5671L94.2289 47.0856L94.0678 46.9766L94.0488 46.9833V26.7743L94.0769 26.5546L94.2405 26.4103Z" fill="#FEFEFE"/>
<path fill-rule="evenodd" clip-rule="evenodd" d="M58.4203 43.7948H58.1279L57.321 43.8141L56.3729 44.3752C56.1226 44.5245 55.9773 44.5732 55.9525 44.5924L39.7589 44.6386C36.0547 44.6386 33.2392 44.1379 31.4024 43.1867C28.6084 41.7139 27.2489 39.618 27.239 36.7697C27.239 35.4957 27.6032 34.2854 28.3292 33.169C29.7167 31.0873 31.727 29.6573 34.6127 29.1163C35.3833 28.9771 36.1192 28.9436 36.6023 28.9436H44.9357C45.442 28.9192 45.3635 29.045 45.3734 29.0987L45.2884 29.695H45.9788L49.5575 25.3052H39.5855C37.2837 25.3052 35.484 25.3823 34.2377 25.5367C33.5762 25.6197 32.9584 25.7254 32.3448 25.8738C30.7186 26.2504 29.1303 26.8811 27.6189 27.7408C25.1792 29.1532 23.4341 30.9322 22.4256 33.0499C21.8648 34.2577 21.5758 35.6047 21.5862 37.0473C21.5758 40.7595 23.5447 43.6967 27.4157 45.8203C29.1617 46.7991 31.1249 47.4776 33.2508 47.8249C34.8497 48.0933 37.0417 48.2275 39.7713 48.2275H54.8251L58.4203 43.7948Z" fill="#FEFEFE"/>
<path fill-rule="evenodd" clip-rule="evenodd" d="M50.1383 38.3037L53.6451 33.8442H30.0316L27.6621 37.4499H48.9424C49.3389 37.4977 49.4817 37.5942 49.495 37.668L49.4115 38.3037H50.1383Z" fill="#FEFEFE"/>
<path fill-rule="evenodd" clip-rule="evenodd" d="M51.9754 25.2847L48.6816 29.4858L49.3556 29.7223L49.4547 29.745L50.4664 29.2216C50.7555 29.0262 51.0446 28.9381 51.3411 28.9381H64.3896V46.6922L64.3301 46.9371L64.1699 47.0638L63.4257 47.5729V48.2279H70.7135V47.5553L69.9636 47.0915L69.7778 46.9212L69.7629 46.7241V28.9381H81.3463C81.7873 28.9893 81.8393 29.0916 81.8393 29.0916V29.7316H82.4934L86.0861 25.2847H51.9754Z" fill="#FEFEFE"/>
<path fill-rule="evenodd" clip-rule="evenodd" d="M231.029 25.0708H233.944L242.893 48.2162H238.269L236.458 43.417H230.526L229.252 40.115H235.251L232.871 33.7507L232.235 31.742L231.598 33.7507L226.235 48.2162H221.979L231.029 25.0708Z" fill="#1D1D1B"/>
<path fill-rule="evenodd" clip-rule="evenodd" d="M257.236 37.4601C260.051 37.4601 260.991 35.5889 260.991 32.8999C260.991 30.2781 260.051 28.6451 257.203 28.6451H254.354V37.4601H257.236ZM256.868 40.6254H254.354V48.2158H249.93V25.0713H257.236C262.532 25.0713 265.482 27.4876 265.482 32.4571C265.482 36.0309 263.839 38.8221 260.857 40.0131L267.057 48.2158H262.097L256.868 40.6254Z" fill="#1D1D1B"/>
<path fill-rule="evenodd" clip-rule="evenodd" d="M274.061 25.0708H288.943L287.769 28.9172H278.484V34.4653H285.222V38.0047H278.484V44.3698H287.769L288.943 48.2162H274.061V25.0708Z" fill="#1D1D1B"/>
<path fill-rule="evenodd" clip-rule="evenodd" d="M296.918 25.0708H300.638L311.095 40.115H311.162V25.0708H315.117V48.2162H311.9L300.939 32.5254H300.872V48.2162H296.918V25.0708Z" fill="#1D1D1B"/>
<path fill-rule="evenodd" clip-rule="evenodd" d="M331.138 25.0708H334.054L343.003 48.2162H338.378L336.568 43.417H330.636L329.362 40.115H335.361L332.981 33.7507L332.345 31.742L331.707 33.7507L326.345 48.2162H322.088L331.138 25.0708Z" fill="#1D1D1B"/>
</svg>
