<svg width="35" height="46" viewBox="0 0 35 46" fill="none" xmlns="http://www.w3.org/2000/svg">
<rect x="19.6162" width="5.38461" height="16.5384" transform="rotate(90 19.6162 0)" fill="url(#paint0_linear_742_63)"/>
<path fill-rule="evenodd" clip-rule="evenodd" d="M27.2913 8.02872C25.7049 6.55244 23.1131 5.38469 19.2324 5.38461L19.2325 0C24.2221 0.000108572 28.2064 1.52476 30.9596 4.08697C33.7047 6.64169 35.0491 10.0722 35.0004 13.4999C34.9007 20.5208 29.0987 26.923 19.2325 26.923V21.5384C26.4949 21.5384 29.5631 17.1716 29.6163 13.4234C29.6441 11.4665 28.8856 9.5125 27.2913 8.02872Z" fill="url(#paint1_linear_742_63)"/>
<path d="M3.07812 0H8.46273V41.1538H3.07812V0Z" fill="url(#paint2_linear_742_63)"/>
<path d="M16.5381 12.6934L16.5381 18.078L-0.000349221 18.078L-0.000348985 12.6934L16.5381 12.6934Z" fill="url(#paint3_linear_742_63)"/>
<path d="M14.3626 21.3269L19.5746 21.5574L31.1939 41.2215L26.7203 41.1677L22.0523 41.1114L14.3626 21.3269Z" fill="url(#paint4_linear_742_63)"/>
<defs>
<linearGradient id="paint0_linear_742_63" x1="22.3085" y1="0" x2="22.3085" y2="16.5384" gradientUnits="userSpaceOnUse">
<stop stop-color="#E64737"/>
<stop offset="1" stop-color="#CD9955"/>
</linearGradient>
<linearGradient id="paint1_linear_742_63" x1="25.7709" y1="2.6923" x2="25.7709" y2="24.2307" gradientUnits="userSpaceOnUse">
<stop stop-color="#E64737"/>
<stop offset="1" stop-color="#CD9955"/>
</linearGradient>
<linearGradient id="paint2_linear_742_63" x1="5.77043" y1="0" x2="5.77043" y2="41.1538" gradientUnits="userSpaceOnUse">
<stop stop-color="#E64737"/>
<stop offset="1" stop-color="#CD9955"/>
</linearGradient>
<linearGradient id="paint3_linear_742_63" x1="16.5381" y1="15.3857" x2="-0.000349162" y2="15.3857" gradientUnits="userSpaceOnUse">
<stop stop-color="#E64737"/>
<stop offset="1" stop-color="#CD9955"/>
</linearGradient>
<linearGradient id="paint4_linear_742_63" x1="12.8013" y1="22.7911" x2="30.6043" y2="41.7744" gradientUnits="userSpaceOnUse">
<stop stop-color="#E64737"/>
<stop offset="1" stop-color="#CD9955"/>
</linearGradient>
</defs>
</svg>
