<svg width="64" height="61" viewBox="0 0 64 61" fill="none" xmlns="http://www.w3.org/2000/svg">
<rect x="5" y="1" width="58" height="24" stroke="#0BC5AF" stroke-width="2"/>
<rect x="4.5" y="24.5" width="4" height="32" stroke="#0BC5AF"/>
<rect x="1" y="57" width="11" height="3" stroke="#0BC5AF" stroke-width="2"/>
<path d="M21.304 18.112C20.2693 18.112 19.3307 17.872 18.488 17.392C17.6453 16.9013 16.9787 16.224 16.488 15.36C16.008 14.4853 15.768 13.4987 15.768 12.4C15.768 11.3013 16.008 10.32 16.488 9.456C16.9787 8.58133 17.6453 7.904 18.488 7.424C19.3307 6.93333 20.2693 6.688 21.304 6.688C22.3493 6.688 23.2933 6.93333 24.136 7.424C24.9787 7.904 25.64 8.58133 26.12 9.456C26.6 10.32 26.84 11.3013 26.84 12.4C26.84 13.4987 26.6 14.4853 26.12 15.36C25.64 16.224 24.9787 16.9013 24.136 17.392C23.2933 17.872 22.3493 18.112 21.304 18.112ZM21.304 17.136C22.136 17.136 22.8827 16.944 23.544 16.56C24.2053 16.176 24.728 15.6267 25.112 14.912C25.496 14.1867 25.688 13.3493 25.688 12.4C25.688 11.4507 25.496 10.6187 25.112 9.904C24.728 9.18933 24.2053 8.64 23.544 8.256C22.8827 7.872 22.136 7.68 21.304 7.68C20.472 7.68 19.7253 7.872 19.064 8.256C18.4027 8.64 17.88 9.18933 17.496 9.904C17.112 10.6187 16.92 11.4507 16.92 12.4C16.92 13.3493 17.112 14.1867 17.496 14.912C17.88 15.6267 18.4027 16.176 19.064 16.56C19.7253 16.944 20.472 17.136 21.304 17.136ZM33.9134 18.112C32.8787 18.112 31.94 17.872 31.0974 17.392C30.2547 16.9013 29.588 16.224 29.0974 15.36C28.6174 14.4853 28.3774 13.4987 28.3774 12.4C28.3774 11.3013 28.6174 10.32 29.0974 9.456C29.588 8.58133 30.2547 7.904 31.0974 7.424C31.94 6.93333 32.8787 6.688 33.9134 6.688C34.9587 6.688 35.9027 6.93333 36.7454 7.424C37.588 7.904 38.2494 8.58133 38.7294 9.456C39.2094 10.32 39.4494 11.3013 39.4494 12.4C39.4494 13.4987 39.2094 14.4853 38.7294 15.36C38.2494 16.224 37.588 16.9013 36.7454 17.392C35.9027 17.872 34.9587 18.112 33.9134 18.112ZM33.9134 17.136C34.7454 17.136 35.492 16.944 36.1534 16.56C36.8147 16.176 37.3374 15.6267 37.7214 14.912C38.1054 14.1867 38.2974 13.3493 38.2974 12.4C38.2974 11.4507 38.1054 10.6187 37.7214 9.904C37.3374 9.18933 36.8147 8.64 36.1534 8.256C35.492 7.872 34.7454 7.68 33.9134 7.68C33.0814 7.68 32.3347 7.872 31.6734 8.256C31.012 8.64 30.4894 9.18933 30.1054 9.904C29.7214 10.6187 29.5294 11.4507 29.5294 12.4C29.5294 13.3493 29.7214 14.1867 30.1054 14.912C30.4894 15.6267 31.012 16.176 31.6734 16.56C32.3347 16.944 33.0814 17.136 33.9134 17.136ZM49.8028 6.816V18H48.6828V12.768H42.6188V18H41.4988V6.816H42.6188V11.84H48.6828V6.816H49.8028Z" fill="#0BC5AF"/>
</svg>
