<svg width="71" height="78" viewBox="0 0 71 78" fill="none" xmlns="http://www.w3.org/2000/svg">
<path fill-rule="evenodd" clip-rule="evenodd" d="M20 39.6106C31.0457 39.6106 40 30.7435 40 19.8053C40 8.86714 31.0457 0 20 0C8.9543 0 0 8.86714 0 19.8053C0 30.7435 8.9543 39.6106 20 39.6106ZM20 36.669C29.3888 36.669 37 29.132 37 19.8345C37 10.5371 29.3888 3 20 3C10.6112 3 3 10.5371 3 19.8345C3 29.132 10.6112 36.669 20 36.669Z" fill="#0BC5AF"/>
<rect x="17" y="37" width="3" height="26" fill="#0BC5AF"/>
<rect x="42" y="26" width="3" height="37" fill="#0BC5AF"/>
<rect x="60" y="26" width="3" height="19" fill="#0BC5AF"/>
<rect x="71" y="45" width="3" height="19" transform="rotate(90 71 45)" fill="#0BC5AF"/>
<rect x="55" y="57" width="3" height="12" transform="rotate(-180 55 57)" fill="#0BC5AF"/>
<rect x="71" y="57" width="3" height="12" transform="rotate(-180 71 57)" fill="#0BC5AF"/>
<path d="M18.4996 59.8752C17 81.0001 44.9996 81.5001 43.4996 59.8752M43.4996 26.0001C43.4996 7.50006 61.4996 7.50004 61.4996 26.0001" stroke="#0BC5AF" stroke-width="3"/>
<path d="M53.5 57C53.5 68 69.5 68.2 69.5 57" stroke="#0BC5AF" stroke-width="3"/>
<path d="M61.3536 49.6464C61.1583 49.4512 60.8417 49.4512 60.6464 49.6464L57.4645 52.8284C57.2692 53.0237 57.2692 53.3403 57.4645 53.5355C57.6597 53.7308 57.9763 53.7308 58.1716 53.5355L61 50.7071L63.8284 53.5355C64.0237 53.7308 64.3403 53.7308 64.5355 53.5355C64.7308 53.3403 64.7308 53.0237 64.5355 52.8284L61.3536 49.6464ZM61.5 60L61.5 50L60.5 50L60.5 60L61.5 60Z" fill="#0BC5AF"/>
<path d="M26.232 23.104C26.232 23.984 26 24.8 25.536 25.552C25.088 26.288 24.416 26.896 23.52 27.376C22.64 27.84 21.592 28.096 20.376 28.144V30.088H18.84V28.12C17.144 27.976 15.776 27.472 14.736 26.608C13.696 25.728 13.144 24.536 13.08 23.032H17.448C17.544 23.992 18.008 24.608 18.84 24.88V21.088C17.592 20.768 16.592 20.456 15.84 20.152C15.104 19.848 14.456 19.36 13.896 18.688C13.336 18.016 13.056 17.096 13.056 15.928C13.056 14.472 13.592 13.304 14.664 12.424C15.752 11.544 17.144 11.048 18.84 10.936V8.992H20.376V10.936C22.056 11.064 23.384 11.552 24.36 12.4C25.336 13.248 25.88 14.424 25.992 15.928H21.6C21.504 15.064 21.096 14.504 20.376 14.248V17.968C21.704 18.336 22.728 18.664 23.448 18.952C24.168 19.24 24.808 19.72 25.368 20.392C25.944 21.048 26.232 21.952 26.232 23.104ZM17.4 15.736C17.4 16.136 17.52 16.472 17.76 16.744C18.016 17.016 18.376 17.256 18.84 17.464V14.128C18.392 14.208 18.04 14.384 17.784 14.656C17.528 14.912 17.4 15.272 17.4 15.736ZM20.376 24.952C20.856 24.872 21.232 24.68 21.504 24.376C21.792 24.072 21.936 23.696 21.936 23.248C21.936 22.832 21.8 22.496 21.528 22.24C21.272 21.968 20.888 21.736 20.376 21.544V24.952Z" fill="#0BC5AF"/>
</svg>
