<svg width="64" height="76" viewBox="0 0 64 76" fill="none" xmlns="http://www.w3.org/2000/svg">
<path d="M1 1H59V75H15C7.26801 75 1 68.732 1 61V1Z" stroke="#0BC5AF" stroke-width="2"/>
<path d="M22.712 18H21.592L15.4 8.592V18H14.28V6.816H15.4L21.592 16.208V6.816H22.712V18ZM33.1528 13.184C33.1528 13.568 33.1421 13.8613 33.1208 14.064H25.8728C25.9048 14.7253 26.0648 15.2907 26.3528 15.76C26.6408 16.2293 27.0194 16.5867 27.4888 16.832C27.9581 17.0667 28.4701 17.184 29.0248 17.184C29.7501 17.184 30.3581 17.008 30.8488 16.656C31.3501 16.304 31.6808 15.8293 31.8408 15.232H33.0248C32.8114 16.0853 32.3528 16.784 31.6488 17.328C30.9554 17.8613 30.0808 18.128 29.0248 18.128C28.2034 18.128 27.4674 17.9467 26.8168 17.584C26.1661 17.2107 25.6541 16.688 25.2808 16.016C24.9181 15.3333 24.7368 14.5387 24.7368 13.632C24.7368 12.7253 24.9181 11.9307 25.2808 11.248C25.6434 10.5653 26.1501 10.0427 26.8008 9.68C27.4514 9.31733 28.1928 9.136 29.0248 9.136C29.8568 9.136 30.5821 9.31733 31.2008 9.68C31.8301 10.0427 32.3101 10.5333 32.6408 11.152C32.9821 11.76 33.1528 12.4373 33.1528 13.184ZM32.0168 13.152C32.0274 12.5013 31.8941 11.9467 31.6168 11.488C31.3501 11.0293 30.9821 10.6827 30.5128 10.448C30.0434 10.2133 29.5314 10.096 28.9768 10.096C28.1448 10.096 27.4354 10.3627 26.8488 10.896C26.2621 11.4293 25.9368 12.1813 25.8728 13.152H32.0168ZM46.7219 9.264L43.9859 18H42.8659L40.4499 10.672L38.0339 18H36.8979L34.1619 9.264H35.2979L37.4739 16.864L39.9219 9.264H41.0419L43.4579 16.88L45.6179 9.264H46.7219Z" fill="#0BC5AF"/>
<line x1="10" y1="21" x2="47" y2="21" stroke="#0BC5AF" stroke-width="2"/>
<rect x="11" y="28" width="18" height="17" stroke="#0BC5AF" stroke-width="2"/>
<line x1="11.3427" y1="28.6359" x2="28.3427" y2="44.6359" stroke="#0BC5AF"/>
<line x1="11.6567" y1="44.6365" x2="29.6567" y2="27.6365" stroke="#0BC5AF"/>
<line x1="35" y1="27.5" x2="47" y2="27.5" stroke="#0BC5AF"/>
<line x1="35" y1="31.5" x2="47" y2="31.5" stroke="#0BC5AF"/>
<line x1="35" y1="35.5" x2="47" y2="35.5" stroke="#0BC5AF"/>
<line x1="35" y1="39.5" x2="47" y2="39.5" stroke="#0BC5AF"/>
<line x1="35" y1="43.5" x2="42" y2="43.5" stroke="#0BC5AF"/>
<line x1="10" y1="54.5" x2="47" y2="54.5" stroke="#0BC5AF"/>
<line x1="10" y1="59.5" x2="47" y2="59.5" stroke="#0BC5AF"/>
<line x1="10" y1="64.5" x2="30" y2="64.5" stroke="#0BC5AF"/>
<path d="M59 74.9V24H63V70C63 72.419 61.2822 74.4367 59 74.9Z" stroke="#0BC5AF" stroke-width="2"/>
</svg>
