<svg width="333" height="108" viewBox="0 0 333 108" fill="none" xmlns="http://www.w3.org/2000/svg">
<g clip-path="url(#clip0_223_238)">
<path d="M60.9918 44.0873C60.9918 30.2739 47.3116 19.0371 30.4969 19.0371H0V87.7364H12.7207V69.14H30.4969C31.2233 69.14 31.956 69.1143 32.7482 69.0593L48.709 87.7364H64.2527L45.5515 65.8543C54.9957 61.4267 60.9918 53.0618 60.9918 44.0873ZM48.27 44.0873C48.27 52.1388 40.2964 58.6896 30.4969 58.6896H12.7207V29.4875H30.4969C40.2964 29.4875 48.27 36.0366 48.27 44.0873Z" fill="#0072BC"/>
<path d="M198.658 50.0936C202.281 46.6945 204.324 42.2858 204.324 37.7441C204.324 27.4087 194.089 19 181.508 19H146.658V87.7104L183.633 87.7113C197.621 87.7113 209 78.3633 209 66.8732C209 60.2709 205.087 53.9957 198.658 50.0936ZM159.38 46.036V29.4504H181.508C187.076 29.4504 191.605 33.1705 191.605 37.7441C191.605 42.3159 187.076 46.036 181.508 46.036H159.38ZM196.28 66.8741C196.28 72.6024 190.606 77.2626 183.633 77.2626L159.38 77.2618V56.4864H183.633C190.606 56.4864 196.28 61.1466 196.28 66.8741Z" fill="#0072BC"/>
<path d="M125.59 72.6709L135.537 64.2313L126.555 57.0786L105.017 75.3402C102.474 77.4849 99.0599 78.6868 95.4008 78.7263C95.3391 78.7272 95.2785 78.7272 95.2168 78.7272C91.6267 78.7272 88.2456 77.6008 85.6776 75.5462C83.0605 73.4514 81.5931 70.6456 81.546 67.6458C81.499 64.646 82.8776 61.8084 85.4268 59.6569L88.0261 57.4641L98.3952 65.587L107.124 58.2283L89.4715 44.4037C87.6352 42.7922 86.7792 40.8948 86.7792 38.4376C86.7792 33.403 91.7657 29.306 97.8935 29.306H100.455V19.0308H97.8935C84.8676 19.0308 74.2706 27.7365 74.2706 38.4376C74.2706 42.9674 75.898 46.9365 79.1119 50.2565L76.4644 52.4871C71.5825 56.603 68.9455 62.0342 69.0375 67.7797C69.1274 73.5252 71.9368 78.8981 76.9484 82.9075C81.8554 86.8363 88.3407 88.9999 95.2158 88.9999C102.353 88.9999 109.02 86.6929 113.99 82.5006L116.882 80.0502L126.902 87.7429L135.535 80.3061L125.59 72.6709Z" fill="#0072BC"/>
</g>
<defs>
<clipPath id="clip0_223_238">
<rect width="209" height="70" fill="white" transform="translate(0 19)"/>
</clipPath>
</defs>
</svg>
