<svg width="116" height="116" viewBox="0 0 116 116" fill="none" xmlns="http://www.w3.org/2000/svg">
<path fill-rule="evenodd" clip-rule="evenodd" d="M58 116C90.0325 116 116 90.0325 116 58C116 25.9675 90.0325 0 58 0C25.9675 0 0 25.9675 0 58C0 90.0325 25.9675 116 58 116ZM58 108C85.6142 108 108 85.6142 108 58C108 30.3858 85.6142 8 58 8C30.3858 8 8 30.3858 8 58C8 85.6142 30.3858 108 58 108Z" fill="url(#paint0_linear_742_71)"/>
<path d="M16.4 71.44C16.9067 71.44 17.3 71.5267 17.58 71.7C17.86 71.8733 18 72.2133 18 72.72V72.98C18.36 72.5533 18.7867 72.1667 19.28 71.82C19.7867 71.4733 20.2867 71.3 20.78 71.3C21.1667 71.3 21.4667 71.3933 21.68 71.58C21.8933 71.7533 22 71.9867 22 72.28C22 72.8267 21.76 73.36 21.28 73.88C20.8133 73.5867 20.38 73.44 19.98 73.44C19.3933 73.44 18.7067 73.8467 17.92 74.66C17.88 75.4467 17.86 76.2067 17.86 76.94C17.86 78.8333 17.9733 80.12 18.2 80.8C17.64 80.9733 17.0867 81.06 16.54 81.06C15.9133 81.06 15.4733 80.9533 15.22 80.74C14.98 80.5133 14.86 80.1867 14.86 79.76C14.86 79.5467 14.8667 79.0467 14.88 78.26C14.9067 77.4733 14.92 76.8467 14.92 76.38C14.92 74.4733 14.8733 72.9133 14.78 71.7C15.2867 71.5267 15.8267 71.44 16.4 71.44ZM24.6655 74.72C23.4921 74.5067 22.9055 74.0067 22.9055 73.22C22.9055 72.6867 23.2855 72.2333 24.0455 71.86C24.8188 71.4867 25.7455 71.3 26.8255 71.3C28.2255 71.3 29.2588 71.5667 29.9255 72.1C30.5921 72.6333 30.9255 73.52 30.9255 74.76C30.9255 74.8667 30.9188 75.26 30.9055 75.94C30.8921 76.62 30.8855 77.1267 30.8855 77.46C30.8855 78.9933 31.0121 80.14 31.2655 80.9C30.6788 81.06 30.1588 81.14 29.7055 81.14C28.7455 81.14 28.1855 80.7533 28.0255 79.98C27.7055 80.3533 27.2921 80.6533 26.7855 80.88C26.2921 81.0933 25.7921 81.2 25.2855 81.2C24.5521 81.2 23.9321 80.9667 23.4255 80.5C22.9321 80.02 22.6855 79.3133 22.6855 78.38C22.6855 77.6333 22.8321 77.0867 23.1255 76.74C23.4321 76.3933 23.8455 76.1333 24.3655 75.96C25.3788 75.64 26.5788 75.44 27.9655 75.36C27.9655 74.5467 27.8721 73.98 27.6855 73.66C27.5121 73.3267 27.1388 73.16 26.5655 73.16C26.2321 73.16 25.8721 73.3 25.4855 73.58C25.1121 73.86 24.8388 74.24 24.6655 74.72ZM27.9455 76.8C27.5455 76.8667 27.2388 76.9267 27.0255 76.98C26.8121 77.0333 26.5788 77.12 26.3255 77.24C26.0855 77.3467 25.9121 77.4933 25.8055 77.68C25.7121 77.8533 25.6655 78.0733 25.6655 78.34C25.6655 78.6733 25.7455 78.9267 25.9055 79.1C26.0655 79.26 26.2655 79.34 26.5055 79.34C27.0655 79.34 27.5321 79.1733 27.9055 78.84C27.8921 78.72 27.8855 78.52 27.8855 78.24C27.8855 77.76 27.9055 77.28 27.9455 76.8ZM34.5483 70.6C34.0416 70.6 33.6083 70.4267 33.2483 70.08C32.9016 69.72 32.7283 69.2667 32.7283 68.72C32.7283 68.2 32.9149 67.76 33.2883 67.4C33.6616 67.04 34.0949 66.86 34.5883 66.86C35.0816 66.86 35.5016 67.04 35.8483 67.4C36.2083 67.76 36.3883 68.2 36.3883 68.72C36.3883 69.2533 36.2016 69.7 35.8283 70.06C35.4549 70.42 35.0283 70.6 34.5483 70.6ZM34.5883 71.44C35.0949 71.44 35.4883 71.5267 35.7683 71.7C36.0483 71.8733 36.1883 72.2133 36.1883 72.72C36.1883 72.8 36.1616 73.3867 36.1083 74.48C36.0683 75.5733 36.0483 76.3933 36.0483 76.94C36.0483 78.8333 36.1616 80.12 36.3883 80.8C35.8283 80.9733 35.2749 81.06 34.7283 81.06C34.1016 81.06 33.6616 80.9533 33.4083 80.74C33.1683 80.5133 33.0483 80.1867 33.0483 79.76C33.0483 79.5467 33.0549 79.0467 33.0683 78.26C33.0949 77.4733 33.1083 76.8467 33.1083 76.38C33.1083 74.4733 33.0616 72.9133 32.9683 71.7C33.4749 71.5267 34.0149 71.44 34.5883 71.44ZM37.905 71.7C38.4517 71.5267 38.9717 71.44 39.465 71.44C40.4383 71.44 40.9917 71.8333 41.125 72.62C41.9917 71.7533 42.9783 71.32 44.085 71.32C44.9917 71.32 45.7383 71.58 46.325 72.1C46.9117 72.62 47.205 73.36 47.205 74.32C47.205 74.3467 47.1917 74.8267 47.165 75.76C47.1517 76.6933 47.145 77.4 47.145 77.88C47.145 79.0267 47.2583 80 47.485 80.8C46.9117 80.9733 46.3317 81.06 45.745 81.06C44.6783 81.06 44.145 80.6533 44.145 79.84C44.145 79.36 44.165 78.48 44.205 77.2C44.245 75.9067 44.265 75.1267 44.265 74.86C44.265 74.3133 44.1517 73.9067 43.925 73.64C43.7117 73.36 43.4317 73.22 43.085 73.22C42.525 73.22 41.905 73.5467 41.225 74.2C41.2517 75.9067 41.265 77.14 41.265 77.9C41.265 79.0733 41.2983 80.1 41.365 80.98C40.925 81.02 40.5317 81.04 40.185 81.04C38.8517 81.04 38.185 80.72 38.185 80.08C38.185 80.0267 38.1983 79.56 38.225 78.68C38.265 77.8 38.285 76.8867 38.285 75.94C38.285 73.7667 38.1583 72.3533 37.905 71.7ZM56.4578 67.74C56.4578 68.18 56.2245 68.6467 55.7578 69.14C55.4245 68.7933 54.9645 68.62 54.3778 68.62C53.7778 68.62 53.3711 68.7933 53.1578 69.14C52.9578 69.4867 52.8578 70.0333 52.8578 70.78V71.54C54.0445 71.5133 54.9245 71.46 55.4978 71.38C55.5911 71.5667 55.6378 71.84 55.6378 72.2C55.6378 72.64 55.5111 72.9467 55.2578 73.12C55.0178 73.28 54.6511 73.3667 54.1578 73.38C53.5311 73.3933 53.0978 73.4 52.8578 73.4V77.26C52.8578 78.9 52.9778 80.1133 53.2178 80.9C52.7645 81.0067 52.2778 81.06 51.7578 81.06C51.0511 81.06 50.5645 80.98 50.2978 80.82C50.0311 80.66 49.8978 80.3933 49.8978 80.02C49.8978 79.8733 49.9045 79.04 49.9178 77.52C49.9311 76 49.9378 74.6333 49.9378 73.42C49.6845 73.42 49.1978 73.46 48.4778 73.54C48.3711 73.26 48.3178 72.96 48.3178 72.64C48.3178 71.8933 48.8578 71.52 49.9378 71.52C49.9378 70.92 49.9645 70.4067 50.0178 69.98C50.0845 69.54 50.2045 69.1067 50.3778 68.68C50.5511 68.24 50.7911 67.8867 51.0978 67.62C51.4045 67.34 51.8111 67.12 52.3178 66.96C52.8378 66.7867 53.4578 66.7 54.1778 66.7C55.6978 66.7 56.4578 67.0467 56.4578 67.74ZM64.3853 79.88C63.492 80.76 62.3186 81.2 60.8653 81.2C59.412 81.2 58.2386 80.76 57.3453 79.88C56.4653 79 56.0253 77.8267 56.0253 76.36C56.0253 74.8267 56.4653 73.6 57.3453 72.68C58.2386 71.76 59.412 71.3 60.8653 71.3C62.3186 71.3 63.492 71.76 64.3853 72.68C65.2786 73.6 65.7253 74.8267 65.7253 76.36C65.7253 77.8267 65.2786 79 64.3853 79.88ZM62.7453 76.76C62.7453 75.7467 62.5786 74.9067 62.2453 74.24C61.912 73.56 61.452 73.22 60.8653 73.22C60.292 73.22 59.8386 73.4933 59.5053 74.04C59.1853 74.5867 59.0253 75.3067 59.0253 76.2C59.0253 77.08 59.1853 77.8133 59.5053 78.4C59.8386 78.9733 60.292 79.26 60.8653 79.26C61.4653 79.26 61.9253 79.0333 62.2453 78.58C62.5786 78.1133 62.7453 77.5067 62.7453 76.76ZM68.7047 71.44C69.2114 71.44 69.6047 71.5267 69.8847 71.7C70.1647 71.8733 70.3047 72.2133 70.3047 72.72V72.98C70.6647 72.5533 71.0914 72.1667 71.5847 71.82C72.0914 71.4733 72.5914 71.3 73.0847 71.3C73.4714 71.3 73.7714 71.3933 73.9847 71.58C74.198 71.7533 74.3047 71.9867 74.3047 72.28C74.3047 72.8267 74.0647 73.36 73.5847 73.88C73.118 73.5867 72.6847 73.44 72.2847 73.44C71.698 73.44 71.0114 73.8467 70.2247 74.66C70.1847 75.4467 70.1647 76.2067 70.1647 76.94C70.1647 78.8333 70.278 80.12 70.5047 80.8C69.9447 80.9733 69.3914 81.06 68.8447 81.06C68.218 81.06 67.778 80.9533 67.5247 80.74C67.2847 80.5133 67.1647 80.1867 67.1647 79.76C67.1647 79.5467 67.1714 79.0467 67.1847 78.26C67.2114 77.4733 67.2247 76.8467 67.2247 76.38C67.2247 74.4733 67.178 72.9133 67.0847 71.7C67.5914 71.5267 68.1314 71.44 68.7047 71.44ZM80.0302 71.3C81.0168 71.3 81.8702 71.5467 82.5902 72.04C83.3102 72.5333 83.6702 73.2667 83.6702 74.24C83.6702 76.2133 82.2568 77.2 79.4302 77.2C79.1768 77.2 78.7168 77.1867 78.0502 77.16C78.0502 77.92 78.2368 78.4733 78.6102 78.82C78.9968 79.1667 79.4702 79.34 80.0302 79.34C81.0168 79.34 81.7835 79.02 82.3302 78.38C82.6368 78.5267 82.8835 78.7267 83.0702 78.98C83.2702 79.22 83.3702 79.4667 83.3702 79.72C83.3702 80.12 83.1302 80.44 82.6502 80.68C82.1835 80.92 81.7235 81.0667 81.2702 81.12C80.8302 81.1733 80.4035 81.2 79.9902 81.2C78.5235 81.2 77.3235 80.8 76.3902 80C75.4568 79.1867 74.9902 77.9533 74.9902 76.3C74.9902 75.2067 75.2435 74.2733 75.7502 73.5C76.2702 72.7133 76.8968 72.1533 77.6302 71.82C78.3768 71.4733 79.1768 71.3 80.0302 71.3ZM79.8702 73.2C79.3902 73.2 78.9702 73.42 78.6102 73.86C78.2502 74.2867 78.0635 74.92 78.0502 75.76C78.4235 75.7333 78.6835 75.7133 78.8302 75.7C78.9902 75.6733 79.2102 75.6267 79.4902 75.56C79.7835 75.4933 79.9902 75.4067 80.1102 75.3C80.2435 75.18 80.3635 75.02 80.4702 74.82C80.5768 74.6067 80.6302 74.3467 80.6302 74.04C80.6302 73.8267 80.5568 73.6333 80.4102 73.46C80.2635 73.2867 80.0835 73.2 79.8702 73.2ZM90.4139 74.52C90.3072 74.1067 90.1206 73.7867 89.8539 73.56C89.5872 73.3333 89.2939 73.22 88.9739 73.22C88.6672 73.22 88.4072 73.3 88.1939 73.46C87.9806 73.62 87.8739 73.8533 87.8739 74.16C87.8739 74.48 88.0272 74.7333 88.3339 74.92C88.6539 75.1067 89.0339 75.26 89.4739 75.38C89.9272 75.4867 90.3739 75.6267 90.8139 75.8C91.2672 75.96 91.6472 76.2333 91.9539 76.62C92.2739 77.0067 92.4339 77.5 92.4339 78.1C92.4339 79.1133 92.0272 79.8867 91.2139 80.42C90.4139 80.94 89.4672 81.2 88.3739 81.2C88.0272 81.2 87.6872 81.18 87.3539 81.14C87.0206 81.1133 86.6339 81.0533 86.1939 80.96C85.7672 80.8533 85.4206 80.68 85.1539 80.44C84.9006 80.1867 84.7739 79.88 84.7739 79.52C84.7739 78.8 85.3139 78.24 86.3939 77.84C86.5272 78.32 86.7806 78.68 87.1539 78.92C87.5272 79.16 87.9206 79.28 88.3339 79.28C89.2272 79.28 89.6739 78.96 89.6739 78.32C89.6739 78.0133 89.4339 77.7667 88.9539 77.58C88.4872 77.38 87.9739 77.22 87.4139 77.1C86.8539 76.9667 86.3339 76.68 85.8539 76.24C85.3872 75.7867 85.1539 75.1867 85.1539 74.44C85.1539 73.4933 85.5539 72.7333 86.3539 72.16C87.1672 71.5867 88.0806 71.3 89.0939 71.3C89.5606 71.3 90.0272 71.3533 90.4939 71.46C90.9739 71.5533 91.4072 71.7467 91.7939 72.04C92.1806 72.32 92.3739 72.6667 92.3739 73.08C92.3739 73.44 92.2072 73.7533 91.8739 74.02C91.5539 74.2733 91.0672 74.44 90.4139 74.52ZM94.9048 77.38V73.38C94.2115 73.3933 93.6182 73.44 93.1248 73.52C93.0182 73.2267 92.9648 72.9467 92.9648 72.68C92.9648 71.8933 93.5048 71.5 94.5848 71.5H94.8648C94.8382 70.6867 94.7982 70.0067 94.7448 69.46C95.1715 69.2867 95.6582 69.2 96.2048 69.2C96.5648 69.2 96.8448 69.22 97.0448 69.26C97.2582 69.2867 97.4582 69.3933 97.6448 69.58C97.8448 69.7667 97.9448 70.04 97.9448 70.4C97.9448 70.6133 97.9248 70.9867 97.8848 71.52C99.2715 71.52 100.372 71.4667 101.185 71.36C101.278 71.5467 101.325 71.8333 101.325 72.22C101.325 72.9267 100.932 73.3 100.145 73.34C99.6382 73.3667 98.8715 73.38 97.8448 73.38C97.8048 74.7 97.7848 76.02 97.7848 77.34C97.7848 77.66 97.7915 77.9067 97.8048 78.08C97.8182 78.24 97.8515 78.44 97.9048 78.68C97.9715 78.92 98.0782 79.0933 98.2248 79.2C98.3848 79.3067 98.5848 79.36 98.8248 79.36C99.4915 79.36 100.025 79.16 100.425 78.76C100.972 79.1467 101.245 79.54 101.245 79.94C101.245 80.3133 101.012 80.62 100.545 80.86C100.092 81.0867 99.5448 81.2 98.9048 81.2C97.4515 81.2 96.4182 80.88 95.8048 80.24C95.2048 79.6 94.9048 78.6467 94.9048 77.38Z" fill="#CD9955"/>
<rect x="59.6162" y="21" width="5.38461" height="16.5384" transform="rotate(90 59.6162 21)" fill="url(#paint1_linear_742_71)"/>
<path fill-rule="evenodd" clip-rule="evenodd" d="M67.2913 29.0287C65.7049 27.5524 63.1131 26.3847 59.2324 26.3846L59.2325 21C64.2221 21.0001 68.2064 22.5248 70.9596 25.087C73.7047 27.6417 75.0491 31.0722 75.0004 34.4999C74.9007 41.5208 69.0987 47.923 59.2325 47.923V42.5384C66.4949 42.5384 69.5631 38.1716 69.6163 34.4234C69.6441 32.4665 68.8856 30.5125 67.2913 29.0287Z" fill="url(#paint2_linear_742_71)"/>
<path d="M43.0781 21H48.4627V62.1538H43.0781V21Z" fill="url(#paint3_linear_742_71)"/>
<path d="M56.5381 33.6934L56.5381 39.078L39.9997 39.078L39.9997 33.6934L56.5381 33.6934Z" fill="url(#paint4_linear_742_71)"/>
<path d="M54.3626 42.3269L59.5746 42.5574L71.1939 62.2215L66.7203 62.1677L62.0523 62.1114L54.3626 42.3269Z" fill="url(#paint5_linear_742_71)"/>
<defs>
<linearGradient id="paint0_linear_742_71" x1="58" y1="0" x2="58" y2="116" gradientUnits="userSpaceOnUse">
<stop stop-color="#E64737"/>
<stop offset="1" stop-color="#CD9955"/>
</linearGradient>
<linearGradient id="paint1_linear_742_71" x1="62.3085" y1="21" x2="62.3085" y2="37.5384" gradientUnits="userSpaceOnUse">
<stop stop-color="#E64737"/>
<stop offset="1" stop-color="#CD9955"/>
</linearGradient>
<linearGradient id="paint2_linear_742_71" x1="65.7709" y1="23.6923" x2="65.7709" y2="45.2307" gradientUnits="userSpaceOnUse">
<stop stop-color="#E64737"/>
<stop offset="1" stop-color="#CD9955"/>
</linearGradient>
<linearGradient id="paint3_linear_742_71" x1="45.7704" y1="21" x2="45.7704" y2="62.1538" gradientUnits="userSpaceOnUse">
<stop stop-color="#E64737"/>
<stop offset="1" stop-color="#CD9955"/>
</linearGradient>
<linearGradient id="paint4_linear_742_71" x1="56.5381" y1="36.3857" x2="39.9997" y2="36.3857" gradientUnits="userSpaceOnUse">
<stop stop-color="#E64737"/>
<stop offset="1" stop-color="#CD9955"/>
</linearGradient>
<linearGradient id="paint5_linear_742_71" x1="52.8013" y1="43.7911" x2="70.6043" y2="62.7744" gradientUnits="userSpaceOnUse">
<stop stop-color="#E64737"/>
<stop offset="1" stop-color="#CD9955"/>
</linearGradient>
</defs>
</svg>
