<svg width="58" height="63" viewBox="0 0 58 63" fill="none" xmlns="http://www.w3.org/2000/svg">
<path fill-rule="evenodd" clip-rule="evenodd" d="M37.5 39.6106C48.5457 39.6106 57.5 30.7435 57.5 19.8053C57.5 8.86714 48.5457 0 37.5 0C26.4543 0 17.5 8.86714 17.5 19.8053C17.5 30.7435 26.4543 39.6106 37.5 39.6106ZM37.5 36.669C46.8888 36.669 54.5 29.132 54.5 19.8345C54.5 10.5371 46.8888 3 37.5 3C28.1112 3 20.5 10.5371 20.5 19.8345C20.5 29.132 28.1112 36.669 37.5 36.669Z" fill="#0BC5AF"/>
<path d="M24.0839 34.1342C24.6373 33.5178 25.5857 33.4667 26.2021 34.0201V34.0201C26.8186 34.5736 26.8697 35.5219 26.3162 36.1384L3.23366 61.8494C2.68023 62.4658 1.73186 62.5169 1.11541 61.9635V61.9635C0.498963 61.4101 0.447876 60.4617 1.0013 59.8452L24.0839 34.1342Z" fill="#0BC5AF"/>
<path d="M26.556 26.112C25.7347 26.112 24.9987 25.9787 24.348 25.712C23.6973 25.4453 23.1747 25.0507 22.78 24.528C22.396 24.0053 22.1933 23.376 22.172 22.64H25.084C25.1267 23.056 25.2707 23.376 25.516 23.6C25.7613 23.8133 26.0813 23.92 26.476 23.92C26.8813 23.92 27.2013 23.8293 27.436 23.648C27.6707 23.456 27.788 23.1947 27.788 22.864C27.788 22.5867 27.692 22.3573 27.5 22.176C27.3187 21.9947 27.0893 21.8453 26.812 21.728C26.5453 21.6107 26.1613 21.4773 25.66 21.328C24.9347 21.104 24.3427 20.88 23.884 20.656C23.4253 20.432 23.0307 20.1013 22.7 19.664C22.3693 19.2267 22.204 18.656 22.204 17.952C22.204 16.9067 22.5827 16.0907 23.34 15.504C24.0973 14.9067 25.084 14.608 26.3 14.608C27.5373 14.608 28.5347 14.9067 29.292 15.504C30.0493 16.0907 30.4547 16.912 30.508 17.968H27.548C27.5267 17.6053 27.3933 17.3227 27.148 17.12C26.9027 16.9067 26.588 16.8 26.204 16.8C25.8733 16.8 25.6067 16.8907 25.404 17.072C25.2013 17.2427 25.1 17.4933 25.1 17.824C25.1 18.1867 25.2707 18.4693 25.612 18.672C25.9533 18.8747 26.4867 19.0933 27.212 19.328C27.9373 19.5733 28.524 19.808 28.972 20.032C29.4307 20.256 29.8253 20.5813 30.156 21.008C30.4867 21.4347 30.652 21.984 30.652 22.656C30.652 23.296 30.4867 23.8773 30.156 24.4C29.836 24.9227 29.3667 25.3387 28.748 25.648C28.1293 25.9573 27.3987 26.112 26.556 26.112ZM35.0718 16.96V19.232H38.7358V21.344H35.0718V23.808H39.2158V26H32.3358V14.768H39.2158V16.96H35.0718ZM46.304 26.112C45.248 26.112 44.2773 25.8667 43.392 25.376C42.5173 24.8853 41.8187 24.2027 41.296 23.328C40.784 22.4427 40.528 21.4507 40.528 20.352C40.528 19.2533 40.784 18.2667 41.296 17.392C41.8187 16.5173 42.5173 15.8347 43.392 15.344C44.2773 14.8533 45.248 14.608 46.304 14.608C47.36 14.608 48.3253 14.8533 49.2 15.344C50.0853 15.8347 50.7787 16.5173 51.28 17.392C51.792 18.2667 52.048 19.2533 52.048 20.352C52.048 21.4507 51.792 22.4427 51.28 23.328C50.768 24.2027 50.0747 24.8853 49.2 25.376C48.3253 25.8667 47.36 26.112 46.304 26.112ZM46.304 23.616C47.2 23.616 47.9147 23.3173 48.448 22.72C48.992 22.1227 49.264 21.3333 49.264 20.352C49.264 19.36 48.992 18.5707 48.448 17.984C47.9147 17.3867 47.2 17.088 46.304 17.088C45.3973 17.088 44.672 17.3813 44.128 17.968C43.5947 18.5547 43.328 19.3493 43.328 20.352C43.328 21.344 43.5947 22.1387 44.128 22.736C44.672 23.3227 45.3973 23.616 46.304 23.616Z" fill="#0BC5AF"/>
</svg>
