<svg width="71" height="78" viewBox="0 0 71 78" fill="none" xmlns="http://www.w3.org/2000/svg">
<rect x="9.75586" y="1.5" width="51.4884" height="74.6047" rx="3.5" stroke="#0BC5AF" stroke-width="3"/>
<path d="M10.7324 60.2675H60.2673M30.5464 66.8721H42.9301" stroke="#0BC5AF"/>
<rect x="48.3828" y="12.0581" width="22.1163" height="22.1163" rx="3.5" fill="#E2E6E9" stroke="#0BC5AF"/>
<circle cx="60.2673" cy="23.9419" r="5.27907" fill="#E2E6E9" stroke="#0BC5AF"/>
<ellipse cx="66.8705" cy="5.77907" rx="0.825581" ry="0.825581" fill="#E2E6E9"/>
<ellipse cx="66.0457" cy="16.5116" rx="1.65116" ry="1.65116" fill="#0BC5AF"/>
<rect x="0.5" y="38.4768" width="20.4651" height="18.814" rx="1.5" fill="#E2E6E9" stroke="#0BC5AF"/>
<path d="M4.78273 41.1656C4.48273 41.1656 4.23607 41.0789 4.04273 40.9056C3.85607 40.7256 3.76273 40.5056 3.76273 40.2456C3.76273 39.9789 3.85607 39.7589 4.04273 39.5856C4.23607 39.4056 4.48273 39.3156 4.78273 39.3156C5.07607 39.3156 5.31607 39.4056 5.50273 39.5856C5.69607 39.7589 5.79273 39.9789 5.79273 40.2456C5.79273 40.5056 5.69607 40.7256 5.50273 40.9056C5.31607 41.0789 5.07607 41.1656 4.78273 41.1656ZM5.63273 41.7456V47.3256H3.92273V41.7456H5.63273ZM10.272 41.6856C10.9253 41.6856 11.4453 41.8989 11.832 42.3256C12.2253 42.7456 12.422 43.3256 12.422 44.0656V47.3256H10.722V44.2956C10.722 43.9222 10.6253 43.6322 10.432 43.4256C10.2386 43.2189 9.97862 43.1156 9.65195 43.1156C9.32529 43.1156 9.06529 43.2189 8.87195 43.4256C8.67862 43.6322 8.58195 43.9222 8.58195 44.2956V47.3256H6.87195V41.7456H8.58195V42.4856C8.75529 42.2389 8.98862 42.0456 9.28195 41.9056C9.57529 41.7589 9.90529 41.6856 10.272 41.6856Z" fill="#0BC5AF"/>
</svg>
