<svg width="70" height="67" viewBox="0 0 70 67" fill="none" xmlns="http://www.w3.org/2000/svg">
<rect x="0.5" y="15.5" width="69" height="48" rx="4.5" stroke="#0BC5AF"/>
<rect x="6.5" y="22.5" width="48" height="34" rx="7.5" stroke="#0BC5AF"/>
<path d="M22.027 0.977245C21.4945 0.342633 20.5484 0.259857 19.9138 0.79236C19.2791 1.32486 19.1964 2.271 19.7289 2.90561L22.027 0.977245ZM32.9733 14.0225L22.027 0.977245L19.7289 2.90561L30.6752 15.9509L32.9733 14.0225Z" fill="#0BC5AF"/>
<line x1="42.1322" y1="3.11325" x2="33.1142" y2="13.8604" stroke="#0BC5AF" stroke-width="3" stroke-linecap="round"/>
<line x1="6.5" y1="63" x2="6.5" y2="67" stroke="#0BC5AF"/>
<line x1="63.5" y1="63" x2="63.5" y2="67" stroke="#0BC5AF"/>
<rect x="58.5" y="45.5" width="7" height="6" stroke="#0BC5AF"/>
<line x1="58" y1="38.5" x2="66" y2="38.5" stroke="#0BC5AF"/>
<line x1="58" y1="35.5" x2="66" y2="35.5" stroke="#0BC5AF"/>
<line x1="58" y1="32.5" x2="66" y2="32.5" stroke="#0BC5AF"/>
<line x1="9.64951" y1="31.2512" x2="15.355" y2="25.6434" stroke="#0BC5AF"/>
<line x1="15.6495" y1="31.2512" x2="21.355" y2="25.6434" stroke="#0BC5AF"/>
<line x1="9.64951" y1="37.2512" x2="15.355" y2="31.6434" stroke="#0BC5AF"/>
</svg>
